<svg width="500" height="500" viewBox="0 0 500 500" fill="none" xmlns="http://www.w3.org/2000/svg">
<g clip-path="url(#clip0_4275_851)">
<path d="M250 499.023C387.532 499.023 499.023 387.532 499.023 250C499.023 112.468 387.532 0.976562 250 0.976562C112.468 0.976562 0.976562 112.468 0.976562 250C0.976562 387.532 112.468 499.023 250 499.023Z" fill="white"/>
<path d="M250 481.494C377.851 481.494 481.494 377.851 481.494 250C481.494 122.149 377.851 18.5059 250 18.5059C122.149 18.5059 18.5059 122.149 18.5059 250C18.5059 377.851 122.149 481.494 250 481.494Z" fill="url(#paint0_linear_4275_851)"/>
<path d="M369.512 328.467L337.285 309.912C336.839 309.658 336.334 309.524 335.82 309.522C335.553 309.524 335.287 309.56 335.029 309.629C334.654 309.735 334.303 309.914 333.998 310.158C333.693 310.401 333.439 310.702 333.252 311.045C330.482 316.12 327.039 320.798 323.018 324.951C317.597 330.559 311.381 335.34 304.57 339.141C297.994 342.787 290.94 345.496 283.613 347.188C276.726 348.817 269.675 349.662 262.598 349.707C250.125 349.821 237.812 346.902 226.719 341.201C216.062 335.69 206.616 328.103 198.936 318.887C195.184 314.363 191.851 309.509 188.975 304.385L185.186 297.656H267.002C267.779 297.656 268.524 297.348 269.074 296.798C269.623 296.249 269.932 295.504 269.932 294.727V269.238C269.932 268.461 269.623 267.716 269.074 267.167C268.524 266.617 267.779 266.309 267.002 266.309H176.084L175.635 262.285C175.151 257.943 174.907 253.578 174.902 249.209C174.902 245.547 175.098 241.709 175.488 237.783L175.898 233.711H267.002C267.779 233.711 268.524 233.402 269.074 232.853C269.623 232.303 269.932 231.558 269.932 230.781V205.293C269.932 204.516 269.623 203.771 269.074 203.221C268.524 202.672 267.779 202.363 267.002 202.363H184.316L187.822 195.732C190.302 191.027 193.163 186.533 196.377 182.295C203.651 172.787 212.865 164.938 223.408 159.268C234.287 153.33 247.188 150.312 261.758 150.312C268.676 150.342 275.571 151.115 282.324 152.617C289.39 154.185 296.219 156.674 302.637 160.02C314.658 166.416 324.656 176.042 331.504 187.813C331.708 188.16 331.982 188.462 332.308 188.699C332.634 188.935 333.005 189.103 333.398 189.189C333.603 189.236 333.813 189.259 334.023 189.258C334.62 189.259 335.202 189.079 335.693 188.74L365.625 168.125C366.237 167.704 366.665 167.066 366.825 166.341C366.985 165.616 366.863 164.858 366.484 164.219C357.617 149.307 344.941 136.816 328.809 127.109C310.547 116.123 288.525 110.508 263.379 110.508C242.041 110.508 222.783 114.531 206.133 122.461C190.234 129.849 175.949 140.301 164.095 153.218C152.241 166.134 143.051 181.262 137.051 197.734C136.953 197.979 136.875 198.223 136.797 198.467V198.535C136.719 198.789 136.631 199.043 136.533 199.297L135.459 202.305H72.5293C71.7523 202.305 71.0071 202.613 70.4577 203.163C69.9083 203.712 69.5996 204.457 69.5996 205.234V230.723C69.5996 231.5 69.9083 232.245 70.4577 232.794C71.0071 233.344 71.7523 233.652 72.5293 233.652H128.564L128.242 238.467C128.018 241.934 127.91 244.824 127.91 247.549C127.91 252.09 128.145 256.709 128.594 261.279L129.082 266.25H72.5293C71.7523 266.25 71.0071 266.559 70.4577 267.108C69.9083 267.658 69.5996 268.403 69.5996 269.18V294.668C69.5996 295.445 69.9083 296.19 70.4577 296.74C71.0071 297.289 71.7523 297.598 72.5293 297.598H137.139L138.281 300.449C144.681 316.668 153.847 331.652 165.371 344.736C177.21 358.089 191.481 369.068 207.422 377.09C223.486 385.254 241.504 389.395 260.957 389.395C272.46 389.338 283.915 387.905 295.078 385.127C306.467 382.372 317.466 378.206 327.822 372.725C337.823 367.426 347.028 360.746 355.166 352.881C361.368 346.903 366.586 339.981 370.625 332.373C370.98 331.704 371.063 330.924 370.855 330.196C370.648 329.467 370.166 328.848 369.512 328.467Z" fill="white"/>
</g>
<defs>
<linearGradient id="paint0_linear_4275_851" x1="134.238" y1="49.4922" x2="365.762" y2="450.508" gradientUnits="userSpaceOnUse">
<stop stop-color="#0095D7"/>
<stop offset="1" stop-color="#0072AA"/>
</linearGradient>
<clipPath id="clip0_4275_851">
<rect width="500" height="500" fill="white"/>
</clipPath>
</defs>
</svg>
