<svg width="500" height="500" viewBox="0 0 500 500" fill="none" xmlns="http://www.w3.org/2000/svg">
<g clip-path="url(#clip0_4275_852)">
<path d="M250 499.023C387.532 499.023 499.023 387.532 499.023 250C499.023 112.468 387.532 0.976562 250 0.976562C112.468 0.976562 0.976562 112.468 0.976562 250C0.976562 387.532 112.468 499.023 250 499.023Z" fill="white"/>
<path d="M250 481.494C377.851 481.494 481.494 377.851 481.494 250C481.494 122.149 377.851 18.5059 250 18.5059C122.149 18.5059 18.5059 122.149 18.5059 250C18.5059 377.851 122.149 481.494 250 481.494Z" fill="url(#paint0_linear_4275_852)"/>
<path d="M336.66 385.576L326.27 355.752C326.213 355.015 325.879 354.326 325.336 353.824C324.793 353.322 324.08 353.045 323.34 353.047C323.006 353.051 322.675 353.114 322.363 353.233C311.773 356.61 300.715 358.294 289.6 358.223C278.274 358.287 267.022 356.397 256.338 352.637C244.335 348.349 231.742 345.944 219.004 345.508C225.464 336.578 230.791 326.882 234.863 316.641C238.252 308.32 242.549 286.797 242.549 274.463V269.942H309.238C310.015 269.942 310.76 269.633 311.31 269.083C311.859 268.534 312.168 267.789 312.168 267.012V238.506C312.168 237.729 311.859 236.984 311.31 236.434C310.76 235.885 310.015 235.576 309.238 235.576H234.522L233.398 232.734C231.152 227.149 228.682 221.709 226.045 216.572C223.33 211.279 220.762 206.016 218.438 200.947C216.143 195.961 214.141 190.845 212.441 185.625C210.751 180.461 209.881 175.063 209.863 169.629C209.863 158.408 213.711 148.867 221.289 141.309C228.867 133.75 238.691 129.883 250.488 129.883C261.797 129.883 273.438 133.145 285.156 139.649C293.833 144.47 301.637 150.716 308.242 158.125C308.517 158.433 308.855 158.679 309.232 158.847C309.609 159.015 310.017 159.102 310.43 159.102C310.85 159.099 311.264 159.006 311.645 158.829C312.026 158.652 312.364 158.395 312.637 158.076L332.871 134.365C333.32 133.836 333.566 133.165 333.566 132.471C333.566 131.777 333.32 131.106 332.871 130.576C323.454 119.401 311.904 110.215 298.897 103.555C284.195 95.9515 267.88 91.9959 251.328 92.0216C240.068 91.9386 228.884 93.8802 218.311 97.754C208.542 101.316 199.477 106.572 191.533 113.281C184.105 119.607 178.047 127.383 173.73 136.133C169.461 144.821 167.268 154.382 167.324 164.063C167.297 175.28 169.72 186.369 174.424 196.553C179.229 207.002 184.356 217.979 189.658 229.17L192.725 235.625H162.109C161.332 235.625 160.587 235.934 160.038 236.483C159.488 237.033 159.18 237.778 159.18 238.555V267.061C159.18 267.838 159.488 268.583 160.038 269.132C160.587 269.682 161.332 269.99 162.109 269.99H202.588V274.512C202.749 290.668 198.61 306.576 190.596 320.606C183.076 333.672 170.391 345.615 157.803 356.582C157.435 356.903 157.153 357.31 156.982 357.767C156.812 358.224 156.758 358.716 156.826 359.199C156.874 359.582 156.997 359.952 157.188 360.287C157.379 360.622 157.634 360.916 157.939 361.152L158.008 361.289L171.836 389.492C171.882 389.774 171.971 390.048 172.1 390.303C172.444 390.995 173.048 391.522 173.779 391.771C174.511 392.02 175.311 391.969 176.006 391.631C187.199 386.855 199.246 384.403 211.416 384.424C220.691 384.386 229.902 385.952 238.643 389.053C254.06 394.513 270.304 397.272 286.66 397.207C314.17 397.207 334.121 389.688 334.961 389.395C335.325 389.258 335.659 389.051 335.942 388.784C336.226 388.518 336.453 388.197 336.611 387.842C336.769 387.486 336.855 387.103 336.864 386.714C336.872 386.325 336.803 385.938 336.66 385.576Z" fill="white"/>
</g>
<defs>
<linearGradient id="paint0_linear_4275_852" x1="134.238" y1="49.4922" x2="365.762" y2="450.508" gradientUnits="userSpaceOnUse">
<stop stop-color="#0095D7"/>
<stop offset="1" stop-color="#0072AA"/>
</linearGradient>
<clipPath id="clip0_4275_852">
<rect width="500" height="500" fill="white"/>
</clipPath>
</defs>
</svg>
