<svg width="500" height="500" viewBox="0 0 500 500" fill="none" xmlns="http://www.w3.org/2000/svg">
<path d="M250 500C388.071 500 500 388.071 500 250C500 111.929 388.071 0 250 0C111.929 0 0 111.929 0 250C0 388.071 111.929 500 250 500Z" fill="white"/>
<path d="M250 482.402C378.352 482.402 482.402 378.352 482.402 250C482.402 121.648 378.352 17.5981 250 17.5981C121.648 17.5981 17.598 121.648 17.598 250C17.598 378.352 121.648 482.402 250 482.402Z" fill="url(#paint0_linear_4275_854)"/>
<path d="M147.971 327.892V172.284H178.255V246.245L243.667 172.059H277L217.324 241.176L280.755 327.873H246.735L198.235 260.51L178.255 281.373V327.902L147.971 327.892Z" fill="white"/>
<path d="M360.431 238.343C352.182 238.345 344.027 240.102 336.51 243.5C329.834 246.447 324.453 251.713 321.363 258.324V327.931H291.951V212.882H318.951V237.471C320.915 233.637 323.345 230.061 326.186 226.824C328.879 223.76 331.897 220.999 335.186 218.588C338.201 216.37 341.498 214.563 344.99 213.216C348.034 212.021 351.27 211.389 354.539 211.353H358.167C358.94 211.349 359.712 211.421 360.471 211.569L360.431 238.343Z" fill="white"/>
<defs>
<linearGradient id="paint0_linear_4275_854" x1="133.784" y1="48.706" x2="366.216" y2="451.294" gradientUnits="userSpaceOnUse">
<stop stop-color="#0095D7"/>
<stop offset="1" stop-color="#0072AA"/>
</linearGradient>
</defs>
</svg>
