<svg width="500" height="500" viewBox="0 0 500 500" fill="none" xmlns="http://www.w3.org/2000/svg">
<g clip-path="url(#clip0_4275_853)">
<path d="M250 499.023C387.532 499.023 499.023 387.532 499.023 250C499.023 112.468 387.532 0.976562 250 0.976562C112.468 0.976562 0.976562 112.468 0.976562 250C0.976562 387.532 112.468 499.023 250 499.023Z" fill="white"/>
<path d="M250 481.494C377.851 481.494 481.494 377.851 481.494 250C481.494 122.149 377.851 18.5059 250 18.5059C122.149 18.5059 18.5059 122.149 18.5059 250C18.5059 377.851 122.149 481.494 250 481.494Z" fill="url(#paint0_linear_4275_853)"/>
<path d="M344.639 278.574C340.933 270.84 335.544 264.034 328.867 258.652C321.069 252.522 312.339 247.682 303.008 244.316C292.422 240.342 280.469 236.504 267.471 233.037C257.344 230.508 248.213 228.047 240.332 225.723C233.226 223.745 226.351 221.014 219.824 217.578C214.47 214.814 209.799 210.89 206.152 206.094C202.734 201.377 200.996 195.508 200.996 188.633C200.996 177.002 205.41 167.803 214.102 161.289C222.373 155.088 234.18 152.07 250.186 152.07C258.816 152.074 267.413 153.163 275.771 155.312C283.604 157.307 291.27 159.906 298.701 163.086C304.976 165.741 311.025 168.903 316.787 172.539C317.979 173.311 319.082 174.053 320.107 174.756C320.277 174.872 320.469 174.951 320.671 174.988C320.872 175.025 321.08 175.019 321.279 174.971C321.485 174.93 321.68 174.844 321.849 174.719C322.018 174.594 322.157 174.433 322.256 174.248L338.076 145.195C338.26 144.866 338.308 144.479 338.212 144.114C338.115 143.75 337.881 143.437 337.559 143.242C326.444 136.49 314.695 130.841 302.48 126.377C291.267 122.273 279.567 119.646 267.676 118.564L266.65 118.467V72.1777C266.65 71.7892 266.496 71.4166 266.221 71.1419C265.947 70.8672 265.574 70.7129 265.186 70.7129H231.514C231.125 70.7129 230.753 70.8672 230.478 71.1419C230.203 71.4166 230.049 71.7892 230.049 72.1777V119.512C224.934 120.352 219.88 121.533 214.922 123.047C204.199 126.254 194.163 131.419 185.322 138.281C176.994 144.873 170.309 153.307 165.791 162.92C161.104 172.754 158.73 184.238 158.73 197.1C158.73 206.709 160.176 214.99 163.037 221.719C165.95 228.518 170.332 234.588 175.869 239.492C182.522 245.273 190.05 249.961 198.174 253.379C208.886 257.928 219.915 261.694 231.172 264.648C241.367 267.578 251.191 270.41 260.342 273.096C268.308 275.345 276.062 278.286 283.516 281.885C290.352 285.312 295.781 289.443 299.629 294.17C303.862 299.466 306.096 306.083 305.937 312.861C305.937 335.039 288.799 346.758 256.367 346.758C245.549 346.78 234.771 345.442 224.287 342.773C214.645 340.357 205.231 337.105 196.152 333.057C188.62 329.707 181.307 325.884 174.258 321.611C172.051 320.244 170.049 318.955 168.32 317.764C168.147 317.647 167.952 317.569 167.747 317.533C167.541 317.498 167.331 317.507 167.129 317.559C166.92 317.604 166.725 317.694 166.556 317.824C166.387 317.954 166.249 318.121 166.152 318.311L149.951 349.912C149.784 350.234 149.744 350.607 149.838 350.958C149.932 351.308 150.153 351.611 150.459 351.807C164.866 361.1 180.503 368.332 196.914 373.291C207.729 376.613 218.803 379.024 230.02 380.498V423.584C230.02 423.972 230.174 424.345 230.449 424.62C230.723 424.895 231.096 425.049 231.484 425.049H265.127C265.515 425.049 265.888 424.895 266.163 424.62C266.437 424.345 266.592 423.972 266.592 423.584V381.836L267.754 381.748C275.981 381.16 284.147 379.899 292.168 377.979C302.928 375.489 313.144 371.058 322.314 364.902C330.839 359.033 337.799 351.168 342.588 341.992C347.578 332.588 350.107 320.986 350.107 307.52C350.176 296.025 348.32 286.279 344.639 278.574Z" fill="white"/>
</g>
<defs>
<linearGradient id="paint0_linear_4275_853" x1="134.238" y1="49.4922" x2="365.762" y2="450.508" gradientUnits="userSpaceOnUse">
<stop stop-color="#0095D7"/>
<stop offset="1" stop-color="#0072AA"/>
</linearGradient>
<clipPath id="clip0_4275_853">
<rect width="500" height="500" fill="white"/>
</clipPath>
</defs>
</svg>
