<svg xmlns="http://www.w3.org/2000/svg" width="135.881" height="148.303" viewBox="0 0 135.881 148.303"><g transform="translate(-680.544 -574.918)"><circle cx="67.94" cy="67.94" r="67.94" transform="translate(680.544 582.967)" fill="#4d519e" opacity="0.05" style="isolation:isolate"/><path d="M778.68,647.651" fill="#fff"/><path d="M5.582,0H88.568A5.582,5.582,0,0,1,94.15,5.582v96.924a0,0,0,0,1,0,0H0a0,0,0,0,1,0,0V5.582A5.582,5.582,0,0,1,5.582,0Z" transform="translate(782.011 695.793) rotate(180)" fill="#fff" stroke="#055394" stroke-miterlimit="10" stroke-width="1"/><path d="M5.582,0H88.568A5.582,5.582,0,0,1,94.15,5.582V17.87a0,0,0,0,1,0,0H0a0,0,0,0,1,0,0V5.582A5.582,5.582,0,0,1,5.582,0Z" transform="translate(687.861 575.418)" fill="#b7d2ea" stroke="#055394" stroke-miterlimit="10" stroke-width="1" style="isolation:isolate"/><path d="M768.353,703.531c-2.1,2.04-6.341,5.76-6.576-3.047,2.977,4.251-7.063,15.274-9.722-2.2-.779,7.352-7.9,11.633-11.677.44l-.843-2.925" fill="none" stroke="#055394" stroke-linecap="round" stroke-linejoin="round" stroke-width="1"/><path d="M754.12,661.392c5.638-.833,10.276,9.925,27.891,26.56V657.005c1.521,0,15.255-1,28.449,25.159a75.334,75.334,0,0,1-33.376,32.745C764.208,698.3,738.244,661.167,754.12,661.392Z" fill="#fff" style="isolation:isolate"/><g fill="#fff" stroke-linecap="round" stroke-linejoin="round"><path d="M 710.1580200195312 625.0440063476562 C 708.0767211914062 625.0440063476562 706.4055786132812 624.4407958984375 705.191162109375 623.2511596679688 C 704.0731201171875 622.1560668945312 703.4351196289062 620.65625 703.2911987304688 618.7880249023438 L 701.7940063476562 618.7880249023438 L 701.2940063476562 618.7880249023438 L 701.2940063476562 618.2880249023438 L 701.2940063476562 616.6719970703125 L 701.2940063476562 616.1719970703125 L 701.7940063476562 616.1719970703125 L 703.2650146484375 616.1719970703125 L 703.2650146484375 615.7059936523438 L 701.7940063476562 615.7059936523438 L 701.2940063476562 615.7059936523438 L 701.2940063476562 615.2059936523438 L 701.2940063476562 613.5900268554688 L 701.2940063476562 613.0900268554688 L 701.7940063476562 613.0900268554688 L 703.3115844726562 613.0900268554688 C 703.4910278320312 611.2412109375 704.1590576171875 609.7603149414062 705.3009033203125 608.6832885742188 C 706.5377807617188 607.5165405273438 708.2069702148438 606.9249877929688 710.2620239257812 606.9249877929688 C 711.104248046875 606.9249877929688 712.0636596679688 607.0491943359375 713.1135864257812 607.2940673828125 L 713.5570678710938 607.3975219726562 L 713.4954223632812 607.8486938476562 L 713.1744384765625 610.1976928710938 L 713.0927734375 610.7952270507812 L 712.5206909179688 610.6043090820312 C 711.7965087890625 610.362548828125 711.0671997070312 610.239990234375 710.35302734375 610.239990234375 C 709.3349609375 610.239990234375 708.58447265625 610.5108642578125 708.0586547851562 611.068115234375 C 707.6123657226562 611.5426025390625 707.328369140625 612.2213745117188 707.2120361328125 613.0900268554688 L 710.7310180664062 613.0900268554688 L 711.2310180664062 613.0900268554688 L 711.2310180664062 613.5900268554688 L 711.2310180664062 615.2059936523438 L 711.2310180664062 615.7059936523438 L 710.7310180664062 615.7059936523438 L 707.1519775390625 615.7059936523438 L 707.1519775390625 616.1719970703125 L 710.7310180664062 616.1719970703125 L 711.2310180664062 616.1719970703125 L 711.2310180664062 616.6719970703125 L 711.2310180664062 618.2880249023438 L 711.2310180664062 618.7880249023438 L 710.7310180664062 618.7880249023438 L 707.1870727539062 618.7880249023438 C 707.2858276367188 619.7280883789062 707.5643920898438 620.44482421875 708.017822265625 620.9229736328125 C 708.5466918945312 621.4815673828125 709.3028564453125 621.7529907226562 710.3300170898438 621.7529907226562 C 711.1109008789062 621.7529907226562 711.8458862304688 621.6348266601562 712.5144653320312 621.40185546875 L 713.09130859375 621.2008666992188 L 713.1743774414062 621.8060302734375 L 713.495361328125 624.1439819335938 L 713.556884765625 624.5921020507812 L 713.1171264648438 624.6980590820312 C 712.1647338867188 624.9276123046875 711.1691284179688 625.0440063476562 710.1580200195312 625.0440063476562 Z" stroke="none"/><path d="M 710.1580200195312 624.5440063476562 C 711.135986328125 624.5440063476562 712.0830078125 624.4329833984375 713 624.2119750976562 L 712.6790161132812 621.8740234375 C 711.9530029296875 622.1270141601562 711.1710205078125 622.2529907226562 710.3300170898438 622.2529907226562 C 709.1690063476562 622.2529907226562 708.2769775390625 621.9240112304688 707.655029296875 621.2670288085938 C 707.031982421875 620.6099853515625 706.697998046875 619.6170043945312 706.6519775390625 618.2880249023438 L 710.7310180664062 618.2880249023438 L 710.7310180664062 616.6719970703125 L 706.6519775390625 616.6719970703125 L 706.6519775390625 615.2059936523438 L 710.7310180664062 615.2059936523438 L 710.7310180664062 613.5900268554688 L 706.6640014648438 613.5900268554688 C 706.7319946289062 612.3369750976562 707.0759887695312 611.3829956054688 707.6950073242188 610.7249755859375 C 708.3140258789062 610.0689697265625 709.2000122070312 609.739990234375 710.35302734375 609.739990234375 C 711.125 609.739990234375 711.9000244140625 609.8699951171875 712.6790161132812 610.1300048828125 L 713 607.781005859375 C 711.9840087890625 607.5440063476562 711.0709838867188 607.4249877929688 710.2620239257812 607.4249877929688 C 708.3289794921875 607.4249877929688 706.7899780273438 607.9660034179688 705.6439819335938 609.0469970703125 C 704.4979858398438 610.1279907226562 703.875 611.6420288085938 703.7760009765625 613.5900268554688 L 701.7940063476562 613.5900268554688 L 701.7940063476562 615.2059936523438 L 703.7650146484375 615.2059936523438 L 703.7650146484375 616.6719970703125 L 701.7940063476562 616.6719970703125 L 701.7940063476562 618.2880249023438 L 703.7650146484375 618.2880249023438 C 703.8259887695312 620.2589721679688 704.4180297851562 621.7940063476562 705.541015625 622.8939819335938 C 706.6640014648438 623.9940185546875 708.2030029296875 624.5440063476562 710.1580200195312 624.5440063476562 M 710.1580200195312 625.5440063476562 C 707.9412841796875 625.5440063476562 706.1524658203125 624.8927612304688 704.8412475585938 623.6083374023438 C 703.7283935546875 622.518310546875 703.056884765625 621.068115234375 702.8385620117188 619.2880249023438 L 701.7940063476562 619.2880249023438 C 701.24169921875 619.2880249023438 700.7940063476562 618.84033203125 700.7940063476562 618.2880249023438 L 700.7940063476562 616.6719970703125 C 700.7940063476562 616.3824462890625 700.9171142578125 616.1216430664062 701.11376953125 615.9390258789062 C 700.9171142578125 615.7564086914062 700.7940063476562 615.4955444335938 700.7940063476562 615.2059936523438 L 700.7940063476562 613.5900268554688 C 700.7940063476562 613.0377197265625 701.24169921875 612.5900268554688 701.7940063476562 612.5900268554688 L 702.8678588867188 612.5900268554688 C 703.1196899414062 610.8258666992188 703.8204956054688 609.392333984375 704.9578247070312 608.319580078125 C 706.2905883789062 607.0624389648438 708.0751342773438 606.4249877929688 710.2620239257812 606.4249877929688 C 711.1424560546875 606.4249877929688 712.1400756835938 606.5535888671875 713.2271728515625 606.80712890625 C 713.7298583984375 606.9243774414062 714.0606689453125 607.4049682617188 713.9907836914062 607.9163818359375 L 713.6697998046875 610.265380859375 C 713.6295166015625 610.560302734375 713.4598999023438 610.8219604492188 713.2071533203125 610.9791870117188 C 713.0468139648438 611.078857421875 712.8635864257812 611.1300048828125 712.678955078125 611.1300048828125 C 712.572509765625 611.1300048828125 712.4656372070312 611.113037109375 712.3624267578125 611.0785522460938 C 711.6893310546875 610.8538818359375 711.0132446289062 610.739990234375 710.35302734375 610.739990234375 C 709.4801025390625 610.739990234375 708.8485717773438 610.9595947265625 708.4223022460938 611.4112548828125 C 708.1475219726562 611.7034301757812 707.9450073242188 612.0979614257812 707.8167114257812 612.5900268554688 L 710.7310180664062 612.5900268554688 C 711.2833251953125 612.5900268554688 711.7310180664062 613.0377197265625 711.7310180664062 613.5900268554688 L 711.7310180664062 615.2059936523438 C 711.7310180664062 615.4955444335938 711.60791015625 615.7564086914062 711.4112548828125 615.9390258789062 C 711.60791015625 616.1216430664062 711.7310180664062 616.3824462890625 711.7310180664062 616.6719970703125 L 711.7310180664062 618.2880249023438 C 711.7310180664062 618.84033203125 711.2833251953125 619.2880249023438 710.7310180664062 619.2880249023438 L 707.7700805664062 619.2880249023438 C 707.888916015625 619.8434448242188 708.0930786132812 620.275634765625 708.3806762695312 620.5789184570312 C 708.8102416992188 621.03271484375 709.4476928710938 621.2529907226562 710.3300170898438 621.2529907226562 C 711.0547485351562 621.2529907226562 711.734375 621.1442260742188 712.3499755859375 620.9296875 C 712.4569702148438 620.8924560546875 712.5682373046875 620.8740234375 712.678955078125 620.8740234375 C 712.8612670898438 620.8740234375 713.042236328125 620.923828125 713.2012939453125 621.021240234375 C 713.45703125 621.1778564453125 713.62890625 621.44091796875 713.6697387695312 621.738037109375 L 713.99072265625 624.075927734375 C 714.060546875 624.5847778320312 713.733642578125 625.0637817382812 713.2343139648438 625.1841430664062 C 712.2435302734375 625.4229125976562 711.2085571289062 625.5440063476562 710.1580200195312 625.5440063476562 Z" stroke="none" fill="#055394"/></g><g fill="#fff" stroke-linecap="round" stroke-linejoin="round"><path d="M 710.1580200195312 662.6690063476562 C 708.0767211914062 662.6690063476562 706.4055786132812 662.0657958984375 705.191162109375 660.8761596679688 C 704.0731201171875 659.7810668945312 703.4351196289062 658.28125 703.2911987304688 656.4130249023438 L 701.7940063476562 656.4130249023438 L 701.2940063476562 656.4130249023438 L 701.2940063476562 655.9130249023438 L 701.2940063476562 654.2969970703125 L 701.2940063476562 653.7969970703125 L 701.7940063476562 653.7969970703125 L 703.2650146484375 653.7969970703125 L 703.2650146484375 653.3309936523438 L 701.7940063476562 653.3309936523438 L 701.2940063476562 653.3309936523438 L 701.2940063476562 652.8309936523438 L 701.2940063476562 651.2150268554688 L 701.2940063476562 650.7150268554688 L 701.7940063476562 650.7150268554688 L 703.3115844726562 650.7150268554688 C 703.4910278320312 648.8662109375 704.1590576171875 647.3853149414062 705.3009033203125 646.3082885742188 C 706.5377807617188 645.1415405273438 708.2069702148438 644.5499877929688 710.2620239257812 644.5499877929688 C 711.104248046875 644.5499877929688 712.0636596679688 644.6741943359375 713.1135864257812 644.9190673828125 L 713.5570678710938 645.0225219726562 L 713.4954223632812 645.4736938476562 L 713.1744384765625 647.8226928710938 L 713.0927734375 648.4202270507812 L 712.5206909179688 648.2293090820312 C 711.7965087890625 647.987548828125 711.0671997070312 647.864990234375 710.35302734375 647.864990234375 C 709.3349609375 647.864990234375 708.58447265625 648.1358642578125 708.0586547851562 648.693115234375 C 707.6123657226562 649.1676025390625 707.328369140625 649.8463745117188 707.2120361328125 650.7150268554688 L 710.7310180664062 650.7150268554688 L 711.2310180664062 650.7150268554688 L 711.2310180664062 651.2150268554688 L 711.2310180664062 652.8309936523438 L 711.2310180664062 653.3309936523438 L 710.7310180664062 653.3309936523438 L 707.1519775390625 653.3309936523438 L 707.1519775390625 653.7969970703125 L 710.7310180664062 653.7969970703125 L 711.2310180664062 653.7969970703125 L 711.2310180664062 654.2969970703125 L 711.2310180664062 655.9130249023438 L 711.2310180664062 656.4130249023438 L 710.7310180664062 656.4130249023438 L 707.1870727539062 656.4130249023438 C 707.2858276367188 657.3530883789062 707.5643920898438 658.06982421875 708.017822265625 658.5479736328125 C 708.5466918945312 659.1065673828125 709.3028564453125 659.3779907226562 710.3300170898438 659.3779907226562 C 711.1109008789062 659.3779907226562 711.8458862304688 659.2598266601562 712.5144653320312 659.02685546875 L 713.09130859375 658.8258666992188 L 713.1743774414062 659.4310302734375 L 713.495361328125 661.7689819335938 L 713.556884765625 662.2171020507812 L 713.1171264648438 662.3230590820312 C 712.1647338867188 662.5526123046875 711.1691284179688 662.6690063476562 710.1580200195312 662.6690063476562 Z" stroke="none"/><path d="M 710.1580200195312 662.1690063476562 C 711.135986328125 662.1690063476562 712.0830078125 662.0579833984375 713 661.8369750976562 L 712.6790161132812 659.4990234375 C 711.9530029296875 659.7520141601562 711.1710205078125 659.8779907226562 710.3300170898438 659.8779907226562 C 709.1690063476562 659.8779907226562 708.2769775390625 659.5490112304688 707.655029296875 658.8920288085938 C 707.031982421875 658.2349853515625 706.697998046875 657.2420043945312 706.6519775390625 655.9130249023438 L 710.7310180664062 655.9130249023438 L 710.7310180664062 654.2969970703125 L 706.6519775390625 654.2969970703125 L 706.6519775390625 652.8309936523438 L 710.7310180664062 652.8309936523438 L 710.7310180664062 651.2150268554688 L 706.6640014648438 651.2150268554688 C 706.7319946289062 649.9619750976562 707.0759887695312 649.0079956054688 707.6950073242188 648.3499755859375 C 708.3140258789062 647.6939697265625 709.2000122070312 647.364990234375 710.35302734375 647.364990234375 C 711.125 647.364990234375 711.9000244140625 647.4949951171875 712.6790161132812 647.7550048828125 L 713 645.406005859375 C 711.9840087890625 645.1690063476562 711.0709838867188 645.0499877929688 710.2620239257812 645.0499877929688 C 708.3289794921875 645.0499877929688 706.7899780273438 645.5910034179688 705.6439819335938 646.6719970703125 C 704.4979858398438 647.7529907226562 703.875 649.2670288085938 703.7760009765625 651.2150268554688 L 701.7940063476562 651.2150268554688 L 701.7940063476562 652.8309936523438 L 703.7650146484375 652.8309936523438 L 703.7650146484375 654.2969970703125 L 701.7940063476562 654.2969970703125 L 701.7940063476562 655.9130249023438 L 703.7650146484375 655.9130249023438 C 703.8259887695312 657.8839721679688 704.4180297851562 659.4190063476562 705.541015625 660.5189819335938 C 706.6640014648438 661.6190185546875 708.2030029296875 662.1690063476562 710.1580200195312 662.1690063476562 M 710.1580200195312 663.1690063476562 C 707.9412841796875 663.1690063476562 706.1524658203125 662.5177612304688 704.8412475585938 661.2333374023438 C 703.7283935546875 660.143310546875 703.056884765625 658.693115234375 702.8385620117188 656.9130249023438 L 701.7940063476562 656.9130249023438 C 701.24169921875 656.9130249023438 700.7940063476562 656.46533203125 700.7940063476562 655.9130249023438 L 700.7940063476562 654.2969970703125 C 700.7940063476562 654.0074462890625 700.9171142578125 653.7466430664062 701.11376953125 653.5640258789062 C 700.9171142578125 653.3814086914062 700.7940063476562 653.1205444335938 700.7940063476562 652.8309936523438 L 700.7940063476562 651.2150268554688 C 700.7940063476562 650.6627197265625 701.24169921875 650.2150268554688 701.7940063476562 650.2150268554688 L 702.8678588867188 650.2150268554688 C 703.1196899414062 648.4508666992188 703.8204956054688 647.017333984375 704.9578247070312 645.944580078125 C 706.2905883789062 644.6874389648438 708.0751342773438 644.0499877929688 710.2620239257812 644.0499877929688 C 711.1424560546875 644.0499877929688 712.1400756835938 644.1785888671875 713.2271728515625 644.43212890625 C 713.7298583984375 644.5493774414062 714.0606689453125 645.0299682617188 713.9907836914062 645.5413818359375 L 713.6697998046875 647.890380859375 C 713.6295166015625 648.185302734375 713.4598999023438 648.4469604492188 713.2071533203125 648.6041870117188 C 713.0468139648438 648.703857421875 712.8635864257812 648.7550048828125 712.678955078125 648.7550048828125 C 712.572509765625 648.7550048828125 712.4656372070312 648.738037109375 712.3624267578125 648.7035522460938 C 711.6893310546875 648.4788818359375 711.0132446289062 648.364990234375 710.35302734375 648.364990234375 C 709.4801025390625 648.364990234375 708.8485717773438 648.5845947265625 708.4223022460938 649.0362548828125 C 708.1475219726562 649.3284301757812 707.9450073242188 649.7229614257812 707.8167114257812 650.2150268554688 L 710.7310180664062 650.2150268554688 C 711.2833251953125 650.2150268554688 711.7310180664062 650.6627197265625 711.7310180664062 651.2150268554688 L 711.7310180664062 652.8309936523438 C 711.7310180664062 653.1205444335938 711.60791015625 653.3814086914062 711.4112548828125 653.5640258789062 C 711.60791015625 653.7466430664062 711.7310180664062 654.0074462890625 711.7310180664062 654.2969970703125 L 711.7310180664062 655.9130249023438 C 711.7310180664062 656.46533203125 711.2833251953125 656.9130249023438 710.7310180664062 656.9130249023438 L 707.7700805664062 656.9130249023438 C 707.888916015625 657.4684448242188 708.0930786132812 657.900634765625 708.3806762695312 658.2039184570312 C 708.8102416992188 658.65771484375 709.4476928710938 658.8779907226562 710.3300170898438 658.8779907226562 C 711.0547485351562 658.8779907226562 711.734375 658.7692260742188 712.3499755859375 658.5546875 C 712.4569702148438 658.5174560546875 712.5682373046875 658.4990234375 712.678955078125 658.4990234375 C 712.8612670898438 658.4990234375 713.042236328125 658.548828125 713.2012939453125 658.646240234375 C 713.45703125 658.8028564453125 713.62890625 659.06591796875 713.6697387695312 659.363037109375 L 713.99072265625 661.700927734375 C 714.060546875 662.2097778320312 713.733642578125 662.6887817382812 713.2343139648438 662.8091430664062 C 712.2435302734375 663.0479125976562 711.2085571289062 663.1690063476562 710.1580200195312 663.1690063476562 Z" stroke="none" fill="#055394"/></g><line x2="11.887" transform="translate(725.681 607.425)" fill="none" stroke="#055394" stroke-linecap="round" stroke-linejoin="round" stroke-width="1"/><line x2="24.145" transform="translate(725.681 615.985)" fill="none" stroke="#055394" stroke-linecap="round" stroke-linejoin="round" stroke-width="1"/><line x2="12.072" transform="translate(725.681 624.544)" fill="none" stroke="#055394" stroke-linecap="round" stroke-linejoin="round" stroke-width="1"/><line x2="11.887" transform="translate(725.681 645.05)" fill="none" stroke="#055394" stroke-linecap="round" stroke-linejoin="round" stroke-width="1"/><line x2="24.145" transform="translate(725.681 653.61)" fill="none" stroke="#055394" stroke-linecap="round" stroke-linejoin="round" stroke-width="1"/><line x2="12.072" transform="translate(725.681 662.169)" fill="none" stroke="#055394" stroke-linecap="round" stroke-linejoin="round" stroke-width="1"/><path d="M785.9,687.176c-2.081,3.73-3.746,1.022-7.69-2.552-4.572-4.141-15.063-16.326-18.14-20.334-3.116-4.057-8.063-2.876-9.259-2.209-3.7,2.064-1.859,7.89-.737,10.588s7.379,12.924,14.624,25.182,19.115,24.663,19.115,24.663" fill="none" stroke="#055394" stroke-linecap="round" stroke-linejoin="round" stroke-width="1"/><path d="M814.68,694.654c-8.26-33.787-29.837-38.445-32.669-37.767" fill="none" stroke="#055394" stroke-linecap="round" stroke-linejoin="round" stroke-width="1"/><line y2="36.812" transform="translate(782.011 651.14)" fill="none" stroke="#055394" stroke-miterlimit="10" stroke-width="1"/></g></svg>