<svg xmlns="http://www.w3.org/2000/svg" width="135.881" height="148.76" viewBox="0 0 135.881 148.76"><g transform="translate(-253.753 -574.586)"><circle cx="67.94" cy="67.94" r="67.94" transform="translate(253.753 582.967)" fill="#4d519e" opacity="0.05" style="isolation:isolate"/><circle cx="35.127" cy="35.127" r="35.127" transform="translate(267.392 630.345)" fill="#fff" stroke="#055394" stroke-miterlimit="10" stroke-width="1"/><circle cx="28.465" cy="28.465" r="28.465" transform="translate(274.055 637.007)" fill="#b7d2ea" stroke="#055394" stroke-miterlimit="10" stroke-width="1" style="isolation:isolate"/><g transform="translate(289.273 656.09)" fill="#fff" stroke="#055394" stroke-linecap="round" stroke-linejoin="round" stroke-width="1"><rect width="26.608" height="18.763" stroke="none"/><rect x="-0.5" y="-0.5" width="27.608" height="19.763" fill="none"/></g><g fill="#fff" stroke-linecap="round" stroke-linejoin="round"><path d="M 311.7728271484375 675.35302734375 L 311.3729858398438 675.35302734375 L 293.0849914550781 675.35302734375 L 292.6851501464844 675.35302734375 L 292.5972290039062 674.9629516601562 C 292.2276916503906 673.3235473632812 290.8616638183594 672.0526123046875 289.1980590820312 671.8003540039062 L 288.7730102539062 671.7359619140625 L 288.7730102539062 671.3060302734375 L 288.7730102539062 660.2130126953125 L 288.7730102539062 659.7830810546875 L 289.1980895996094 659.7186279296875 C 291.0691833496094 659.4351196289062 292.5015258789062 657.9234619140625 292.6812438964844 656.04248046875 L 292.7244873046875 655.5900268554688 L 293.1789855957031 655.5900268554688 L 311.2789916992188 655.5900268554688 L 311.7335205078125 655.5900268554688 L 311.7767333984375 656.04248046875 C 311.873779296875 657.0587768554688 312.3437194824219 657.9994506835938 313.0999755859375 658.6913452148438 C 313.8610229492188 659.3875732421875 314.8486938476562 659.77099609375 315.8810119628906 659.77099609375 L 316.3810119628906 659.77099609375 L 316.3810119628906 660.27099609375 L 316.3810119628906 671.2479858398438 L 316.3810119628906 671.7479858398438 L 315.8810119628906 671.7479858398438 C 314.9261474609375 671.7479858398438 314.0302429199219 672.065185546875 313.2901611328125 672.6652221679688 C 312.5709228515625 673.2484130859375 312.0632934570312 674.0643920898438 311.8607482910156 674.9629516601562 L 311.7728271484375 675.35302734375 Z" stroke="none"/><path d="M 311.3729858398438 674.85302734375 C 311.8380126953125 672.7899780273438 313.6780090332031 671.2479858398438 315.8810119628906 671.2479858398438 L 315.8810119628906 660.27099609375 C 313.4769897460938 660.27099609375 311.5029907226562 658.4359741210938 311.2789916992188 656.0900268554688 L 293.1789855957031 656.0900268554688 C 292.9769897460938 658.2039794921875 291.3519897460938 659.8980102539062 289.2730102539062 660.2130126953125 L 289.2730102539062 671.3060302734375 C 291.1589965820312 671.5919799804688 292.6700134277344 673.0120239257812 293.0849914550781 674.85302734375 L 311.3729858398438 674.85302734375 M 311.3729858398438 675.85302734375 L 293.0849914550781 675.85302734375 C 292.617431640625 675.85302734375 292.2122802734375 675.529052734375 292.1094665527344 675.0729370117188 C 291.7848510742188 673.6328125 290.584716796875 672.516357421875 289.1231079101562 672.2947387695312 C 288.6343078613281 672.2206420898438 288.2730102539062 671.8004150390625 288.2730102539062 671.3060302734375 L 288.2730102539062 660.2130126953125 C 288.2730102539062 659.7185668945312 288.6343383789062 659.2984008789062 289.1231994628906 659.2243041992188 C 290.7671813964844 658.9752197265625 292.025634765625 657.647216796875 292.1835021972656 655.9949340820312 C 292.2325439453125 655.4818115234375 292.6635437011719 655.0900268554688 293.1789855957031 655.0900268554688 L 311.2789916992188 655.0900268554688 C 311.7944641113281 655.0900268554688 312.2254638671875 655.4818725585938 312.2744750976562 655.9949951171875 C 312.3597106933594 656.8876953125 312.7727355957031 657.7142944335938 313.4375 658.3223876953125 C 314.1061401367188 658.9341430664062 314.9739379882812 659.27099609375 315.8810119628906 659.27099609375 C 316.4332885742188 659.27099609375 316.8810119628906 659.7186889648438 316.8810119628906 660.27099609375 L 316.8810119628906 671.2479858398438 C 316.8810119628906 671.80029296875 316.4332885742188 672.2479858398438 315.8810119628906 672.2479858398438 C 315.0421142578125 672.2479858398438 314.2550964355469 672.5265502929688 313.6050415039062 673.0535888671875 C 312.9727172851562 673.5663452148438 312.5264587402344 674.283447265625 312.3485107421875 675.0729370117188 C 312.2456970214844 675.529052734375 311.8405456542969 675.85302734375 311.3729858398438 675.85302734375 Z" stroke="none" fill="#055394"/></g><line x2="9.376" transform="translate(297.889 662.172)" fill="#fff" stroke="#055394" stroke-linecap="round" stroke-linejoin="round" stroke-width="1"/><line x2="13.68" transform="translate(296.115 666.384)" fill="#fff" stroke="#055394" stroke-linecap="round" stroke-linejoin="round" stroke-width="1"/><line x2="1.772" transform="translate(301.184 671.306)" fill="#fff" stroke="#055394" stroke-linecap="round" stroke-linejoin="round" stroke-width="1"/><path d="M302.519,630.345a35.506,35.506,0,0,0-3.781.205c-.034.633-.053,1.269-.053,1.91a35.127,35.127,0,0,0,35.127,35.127,35.506,35.506,0,0,0,3.781-.2c.034-.633.053-1.269.053-1.91A35.127,35.127,0,0,0,302.519,630.345Z" fill="#1a1818" opacity="0.05"/><circle cx="35.127" cy="35.127" r="35.127" transform="translate(302.519 592.274)" fill="#fff" stroke="#055394" stroke-miterlimit="10" stroke-width="1"/><circle cx="28.465" cy="28.465" r="28.465" transform="translate(309.182 598.936)" fill="#b7d2ea" stroke="#055394" stroke-miterlimit="10" stroke-width="1" style="isolation:isolate"/><g fill="#fff" stroke-linecap="round" stroke-linejoin="round"><path d="M 338.8039855957031 642.4459838867188 C 335.3611145019531 642.4459838867188 332.603271484375 641.4545288085938 330.6071166992188 639.4992065429688 C 328.7065734863281 637.6375122070312 327.6492614746094 635.053955078125 327.4607849121094 631.8150024414062 L 324.5899963378906 631.8150024414062 L 324.0899963378906 631.8150024414062 L 324.0899963378906 631.3150024414062 L 324.0899963378906 628.5689697265625 L 324.0899963378906 628.0689697265625 L 324.5899963378906 628.0689697265625 L 327.4389953613281 628.0689697265625 L 327.4389953613281 626.5770263671875 L 324.5899963378906 626.5770263671875 L 324.0899963378906 626.5770263671875 L 324.0899963378906 626.0770263671875 L 324.0899963378906 623.3309936523438 L 324.0899963378906 622.8309936523438 L 324.5899963378906 622.8309936523438 L 327.4901428222656 622.8309936523438 C 327.7400512695312 619.627685546875 328.8486022949219 617.0779418945312 330.7888488769531 615.247314453125 C 332.822265625 613.3287963867188 335.5778198242188 612.3560180664062 338.97900390625 612.3560180664062 C 340.3873596191406 612.3560180664062 341.9913330078125 612.5632934570312 343.7463989257812 612.9719848632812 L 344.1900024414062 613.0753173828125 L 344.1283874511719 613.526611328125 L 343.5834045410156 617.5186157226562 L 343.5018920898438 618.1158447265625 L 342.9300231933594 617.9253540039062 C 341.6622009277344 617.5031127929688 340.3853759765625 617.2890014648438 339.135009765625 617.2890014648438 C 337.3271179199219 617.2890014648438 335.9298400878906 617.79931640625 334.9820251464844 618.8057861328125 C 334.1049499511719 619.737060546875 333.5752868652344 621.0894775390625 333.4043884277344 622.8309936523438 L 339.7780151367188 622.8309936523438 L 340.2780151367188 622.8309936523438 L 340.2780151367188 623.3309936523438 L 340.2780151367188 626.0770263671875 L 340.2780151367188 626.5770263671875 L 339.7780151367188 626.5770263671875 L 333.3460083007812 626.5770263671875 L 333.3460083007812 628.0689697265625 L 339.7780151367188 628.0689697265625 L 340.2780151367188 628.0689697265625 L 340.2780151367188 628.5689697265625 L 340.2780151367188 631.3150024414062 L 340.2780151367188 631.8150024414062 L 339.7780151367188 631.8150024414062 L 333.3733215332031 631.8150024414062 C 333.5094909667969 633.6815795898438 334.0263671875 635.0988159179688 334.9126892089844 636.0328369140625 C 335.8667297363281 637.0410766601562 337.2740478515625 637.552001953125 339.0960083007812 637.552001953125 C 340.4616088867188 637.552001953125 341.7494812011719 637.344970703125 342.923828125 636.9367065429688 L 343.5003967285156 636.7362670898438 L 343.5833740234375 637.3410034179688 L 344.1283569335938 641.31298828125 L 344.1897583007812 641.7606811523438 L 343.7505798339844 641.866943359375 C 342.1628723144531 642.2511596679688 340.4985961914062 642.4459838867188 338.8039855957031 642.4459838867188 Z" stroke="none"/><path d="M 338.8039855957031 641.9459838867188 C 340.4649963378906 641.9459838867188 342.0750122070312 641.7579956054688 343.6329956054688 641.3809814453125 L 343.0880126953125 637.4089965820312 C 341.85400390625 637.8380126953125 340.5239868164062 638.052001953125 339.0960083007812 638.052001953125 C 337.1229858398438 638.052001953125 335.6069946289062 637.4940185546875 334.5499877929688 636.3770141601562 C 333.4909973144531 635.260986328125 332.9240112304688 633.572998046875 332.8460083007812 631.3150024414062 L 339.7780151367188 631.3150024414062 L 339.7780151367188 628.5689697265625 L 332.8460083007812 628.5689697265625 L 332.8460083007812 626.0770263671875 L 339.7780151367188 626.0770263671875 L 339.7780151367188 623.3309936523438 L 332.864990234375 623.3309936523438 C 332.9819946289062 621.2020263671875 333.5660095214844 619.5800170898438 334.6180114746094 618.4630126953125 C 335.6690063476562 617.3469848632812 337.1749877929688 616.7890014648438 339.135009765625 616.7890014648438 C 340.4460144042969 616.7890014648438 341.7640075683594 617.010009765625 343.0880126953125 617.4509887695312 L 343.6329956054688 613.458984375 C 341.9070129394531 613.0570068359375 340.3550109863281 612.8560180664062 338.97900390625 612.8560180664062 C 335.6950073242188 612.8560180664062 333.0790100097656 613.7739868164062 331.1319885253906 615.6110229492188 C 329.1849975585938 617.447998046875 328.1270141601562 620.02099609375 327.9590148925781 623.3309936523438 L 324.5899963378906 623.3309936523438 L 324.5899963378906 626.0770263671875 L 327.9389953613281 626.0770263671875 L 327.9389953613281 628.5689697265625 L 324.5899963378906 628.5689697265625 L 324.5899963378906 631.3150024414062 L 327.9389953613281 631.3150024414062 C 328.0429992675781 634.6640014648438 329.0490112304688 637.2730102539062 330.9570007324219 639.1420288085938 C 332.864990234375 641.010986328125 335.4809875488281 641.9459838867188 338.8039855957031 641.9459838867188 M 338.8039855957031 642.9459838867188 C 335.2256774902344 642.9459838867188 332.3501281738281 641.906494140625 330.2572326660156 639.8563842773438 C 328.3585815429688 637.9965209960938 327.2635498046875 635.462890625 326.9953002929688 632.3150024414062 L 324.5899963378906 632.3150024414062 C 324.0377197265625 632.3150024414062 323.5899963378906 631.8673095703125 323.5899963378906 631.3150024414062 L 323.5899963378906 628.5689697265625 C 323.5899963378906 628.0166625976562 324.0377197265625 627.5689697265625 324.5899963378906 627.5689697265625 L 326.9389953613281 627.5689697265625 L 326.9389953613281 627.0770263671875 L 324.5899963378906 627.0770263671875 C 324.0377197265625 627.0770263671875 323.5899963378906 626.6293334960938 323.5899963378906 626.0770263671875 L 323.5899963378906 623.3309936523438 C 323.5899963378906 622.7786865234375 324.0377197265625 622.3309936523438 324.5899963378906 622.3309936523438 L 327.0338134765625 622.3309936523438 C 327.3612976074219 619.215087890625 328.5067749023438 616.7130737304688 330.4457397460938 614.8836669921875 C 332.5750122070312 612.8746948242188 335.4460144042969 611.8560180664062 338.97900390625 611.8560180664062 C 340.4254760742188 611.8560180664062 342.067626953125 612.067626953125 343.8598022460938 612.4850463867188 C 344.3626098632812 612.6021118164062 344.6936340332031 613.0827026367188 344.6238098144531 613.59423828125 L 344.0788269042969 617.5862426757812 C 344.03857421875 617.881103515625 343.8691101074219 618.1427001953125 343.6164855957031 618.2999267578125 C 343.4560852050781 618.3997802734375 343.272705078125 618.4509887695312 343.0879516601562 618.4509887695312 C 342.9817504882812 618.4509887695312 342.8750610351562 618.43408203125 342.7720031738281 618.3997802734375 C 341.5552368164062 617.9945068359375 340.3315734863281 617.7890014648438 339.135009765625 617.7890014648438 C 337.4469604492188 617.7890014648438 336.2075500488281 618.2337036132812 335.3460083007812 619.1486206054688 C 334.6386413574219 619.899658203125 334.1776428222656 620.96728515625 333.9701843261719 622.3309936523438 L 339.7780151367188 622.3309936523438 C 340.3302917480469 622.3309936523438 340.7780151367188 622.7786865234375 340.7780151367188 623.3309936523438 L 340.7780151367188 626.0770263671875 C 340.7780151367188 626.6293334960938 340.3302917480469 627.0770263671875 339.7780151367188 627.0770263671875 L 333.8460083007812 627.0770263671875 L 333.8460083007812 627.5689697265625 L 339.7780151367188 627.5689697265625 C 340.3302917480469 627.5689697265625 340.7780151367188 628.0166625976562 340.7780151367188 628.5689697265625 L 340.7780151367188 631.3150024414062 C 340.7780151367188 631.8673095703125 340.3302917480469 632.3150024414062 339.7780151367188 632.3150024414062 L 333.9233703613281 632.3150024414062 C 334.1017761230469 633.7973022460938 334.5548706054688 634.9293823242188 335.275390625 635.6886596679688 C 336.143798828125 636.6063842773438 337.3932189941406 637.052001953125 339.0960083007812 637.052001953125 C 340.4055786132812 637.052001953125 341.6382141113281 636.8543090820312 342.7596435546875 636.4644775390625 C 342.866455078125 636.4273071289062 342.9774475097656 636.4089965820312 343.0879516601562 636.4089965820312 C 343.2703552246094 636.4089965820312 343.4515075683594 636.4588623046875 343.6106262207031 636.5564575195312 C 343.8661804199219 636.7130737304688 344.0379943847656 636.9761352539062 344.0787353515625 637.2730712890625 L 344.6237182617188 641.2450561523438 C 344.6934814453125 641.7534790039062 344.3670043945312 642.2322387695312 343.8681945800781 642.3529052734375 C 342.2420349121094 642.7464599609375 340.5381774902344 642.9459838867188 338.8039855957031 642.9459838867188 Z" stroke="none" fill="#055394"/></g><path d="M300.368,580.228l-15.666-4.81,2.763,5.211-10.518,5.576a30.3,30.3,0,0,0-14.77,18.084,29.766,29.766,0,0,0-.094,17.239,30.079,30.079,0,0,1,1.119-5.37c2.949-9.6,15.472-17.989,19.075-19.9l10.518-5.575,2.762,5.211Z" fill="#fff" stroke="#055394" stroke-miterlimit="10" stroke-width="1"/><path d="M337.594,717.7l15.666,4.811L350.5,717.3l10.518-5.576a30.3,30.3,0,0,0,14.77-18.083,29.767,29.767,0,0,0,.094-17.239,30.1,30.1,0,0,1-1.119,5.37c-2.949,9.6-15.472,17.989-19.075,19.9l-10.518,5.576-2.762-5.211Z" fill="#fff" stroke="#055394" stroke-miterlimit="10" stroke-width="1"/></g></svg>