<svg xmlns="http://www.w3.org/2000/svg" width="135.881" height="148.096" viewBox="0 0 135.881 148.096"><g transform="translate(-455.46 -574.918)"><circle cx="67.94" cy="67.94" r="67.94" transform="translate(455.46 582.967)" fill="#4d519e" opacity="0.05" style="isolation:isolate"/><line x1="27.476" y1="20.708" transform="translate(541.463 626.368)" fill="none" stroke="#055394" stroke-miterlimit="10" stroke-width="1"/><line x1="10.351" y2="34.198" transform="translate(525.361 629.31)" fill="none" stroke="#055394" stroke-miterlimit="10" stroke-width="1"/><line x1="26.585" y1="24.519" transform="translate(493.885 640.971)" fill="none" stroke="#055394" stroke-miterlimit="10" stroke-width="1"/><line x2="22.364" y2="2.731" transform="translate(497.06 667.263)" fill="none" stroke="#055394" stroke-miterlimit="10" stroke-width="1"/><line x2="2.133" y2="20.565" transform="translate(489.905 642.962)" fill="none" stroke="#055394" stroke-miterlimit="10" stroke-width="1"/><line x1="7.433" y2="19.31" transform="translate(572.204 624.671)" fill="none" stroke="#055394" stroke-miterlimit="10" stroke-width="1"/><path d="M575.063,643.981" fill="none" stroke="#055394" stroke-miterlimit="10" stroke-width="1"/><path d="M563.386,601.4" fill="none" stroke="#055394" stroke-miterlimit="10" stroke-width="1"/><line x1="6.563" y1="17.004" transform="translate(567.66 600.491)" fill="none" stroke="#055394" stroke-miterlimit="10" stroke-width="1"/><line y1="40.74" x2="47.618" transform="translate(527.699 624.399)" fill="none" stroke="#055394" stroke-miterlimit="10" stroke-width="1"/><line y1="21.201" x2="21.171" transform="translate(540.01 599.962)" fill="none" stroke="#055394" stroke-miterlimit="10" stroke-width="1"/><path d="M494.816,637.1l36.866-12.173c0-.053.852-.106.852-.159" fill="none" stroke="#055394" stroke-miterlimit="10" stroke-width="1"/><line x1="30.401" y2="49.599" transform="translate(492.972 584.44)" fill="none" stroke="#055394" stroke-miterlimit="10" stroke-width="1"/><path d="M559.32,598.026" fill="none" stroke="#055394" stroke-miterlimit="10" stroke-width="1"/><line x1="31.57" y1="13.276" transform="translate(528.75 582.23)" fill="none" stroke="#055394" stroke-miterlimit="10" stroke-width="1"/><line y1="3.975" x2="74.633" transform="translate(485.443 596.975)" fill="none" stroke="#055394" stroke-miterlimit="10" stroke-width="1"/><line x1="35.817" y2="16.442" transform="translate(484.836 582.23)" fill="none" stroke="#055394" stroke-miterlimit="10" stroke-width="1"/><line x2="16.142" y2="2.014" transform="translate(468.77 635.956)" fill="none" stroke="#055394" stroke-miterlimit="10" stroke-width="1"/><line x1="9.45" y2="29.295" transform="translate(467.702 603.714)" fill="none" stroke="#055394" stroke-miterlimit="10" stroke-width="1"/><line x1="9.072" y1="27.419" transform="translate(480.833 605.559)" fill="none" stroke="#055394" stroke-miterlimit="10" stroke-width="1"/><line x2="17.892" y2="48.274" transform="translate(465.965 640.198)" fill="none" stroke="#055394" stroke-miterlimit="10" stroke-width="1"/><line x1="20.849" y1="25.223" transform="translate(466.714 639.794)" fill="none" stroke="#055394" stroke-miterlimit="10" stroke-width="1"/><path d="M489.9,674.519" fill="none" stroke="#055394" stroke-miterlimit="10" stroke-width="1"/><line x2="22.435" y2="21.143" transform="translate(489.574 695.305)" fill="none" stroke="#055394" stroke-miterlimit="10" stroke-width="1"/><line x1="3.098" y2="13.514" transform="translate(487.564 675.067)" fill="none" stroke="#055394" stroke-miterlimit="10" stroke-width="1"/><line x1="18.922" y1="39.947" transform="translate(494.991 674.068)" fill="none" stroke="#055394" stroke-miterlimit="10" stroke-width="1"/><line x1="17.481" y1="18.671" transform="translate(527.699 672.341)" fill="none" stroke="#055394" stroke-miterlimit="10" stroke-width="1"/><line y1="19.039" x2="22.443" transform="translate(520.751 697.409)" fill="none" stroke="#055394" stroke-miterlimit="10" stroke-width="1"/><line x1="6.037" y2="39.741" transform="translate(517.318 673.649)" fill="none" stroke="#055394" stroke-miterlimit="10" stroke-width="1"/><path d="M570,681.023" fill="none" stroke="#055394" stroke-miterlimit="10" stroke-width="1"/><line y1="8.963" x2="18.607" transform="translate(552.383 684.592)" fill="none" stroke="#055394" stroke-miterlimit="10" stroke-width="1"/><line x1="21.197" y2="37.765" transform="translate(550.255 653.247)" fill="none" stroke="#055394" stroke-miterlimit="10" stroke-width="1"/><line y1="24.634" x2="0.628" transform="translate(574.435 653.543)" fill="none" stroke="#055394" stroke-miterlimit="10" stroke-width="1"/><line x2="42.33" y2="9.771" transform="translate(528.791 670.803)" fill="none" stroke="#055394" stroke-miterlimit="10" stroke-width="1"/><path d="M578.623,648.763a4.992,4.992,0,1,0-4.992,4.992A5,5,0,0,0,578.623,648.763Z" fill="#b7d2ea" stroke="#055394" stroke-miterlimit="10" stroke-width="1" style="isolation:isolate"/><circle cx="4.992" cy="4.992" r="4.992" transform="translate(484.913 632.978)" fill="#fff" stroke="#055394" stroke-miterlimit="10" stroke-width="1"/><path d="M537.145,620.158a4.611,4.611,0,1,0,4.61,4.611A4.616,4.616,0,0,0,537.145,620.158Z" fill="#b7d2ea" stroke="#055394" stroke-miterlimit="10" stroke-width="1" style="isolation:isolate"/><circle cx="5.82" cy="5.82" r="5.82" transform="translate(485.802 663.508)" fill="#b7d2ea" stroke="#055394" stroke-miterlimit="10" stroke-width="1" style="isolation:isolate"/><path d="M524.251,673.732a4.992,4.992,0,1,0-4.993-4.992A5,5,0,0,0,524.251,673.732Z" fill="#fff" stroke="#055394" stroke-miterlimit="10" stroke-width="1"/><path d="M577.731,625.089a4.61,4.61,0,1,0-4.611-4.61A4.615,4.615,0,0,0,577.731,625.089Z" fill="#fff" stroke="#055394" stroke-miterlimit="10" stroke-width="1"/><path d="M564.685,601.584a4.609,4.609,0,1,0-4.609-4.609A4.615,4.615,0,0,0,564.685,601.584Z" fill="#fff" stroke="#055394" stroke-miterlimit="10" stroke-width="1"/><path d="M524.7,584.638a4.61,4.61,0,1,0-4.61-4.61A4.614,4.614,0,0,0,524.7,584.638Z" fill="#fff" stroke="#055394" stroke-miterlimit="10" stroke-width="1"/><path d="M480.833,605.559a4.61,4.61,0,1,0-4.611-4.61A4.615,4.615,0,0,0,480.833,605.559Z" fill="#b7d2ea" stroke="#055394" stroke-miterlimit="10" stroke-width="1" style="isolation:isolate"/><path d="M468.77,635.956a4.609,4.609,0,1,0-4.609,4.61A4.612,4.612,0,0,0,468.77,635.956Z" fill="#fff" stroke="#055394" stroke-miterlimit="10" stroke-width="1"/><path d="M485.71,688.189a4.61,4.61,0,1,0,4.61,4.61A4.615,4.615,0,0,0,485.71,688.189Z" fill="#fff" stroke="#055394" stroke-miterlimit="10" stroke-width="1"/><path d="M516.38,713.294a4.61,4.61,0,1,0,4.61,4.61A4.615,4.615,0,0,0,516.38,713.294Z" fill="#fff" stroke="#055394" stroke-miterlimit="10" stroke-width="1"/><path d="M547.714,690.313a4.992,4.992,0,1,0,4.992,4.992A5,5,0,0,0,547.714,690.313Z" fill="#b7d2ea" stroke="#055394" stroke-miterlimit="10" stroke-width="1" style="isolation:isolate"/><path d="M575.2,678.109a4.61,4.61,0,1,0,4.611,4.61A4.615,4.615,0,0,0,575.2,678.109Z" fill="#fff" stroke="#055394" stroke-miterlimit="10" stroke-width="1"/></g></svg>